<svg width="24" height="24" viewBox="0 0 24 24" fill="none" xmlns="http://www.w3.org/2000/svg">
<path d="M12.8 0L11.2 0.393443V2.00656C8.72752 2.19468 6.40475 3.24562 4.65064 4.96982C2.89652 6.69403 1.82651 8.97801 1.6336 11.4098H0V12.9836H1.64C1.83126 15.4156 2.89971 17.7002 4.65265 19.4256C6.4056 21.151 8.72765 22.2034 11.2 22.3932V24H12.8V22.3869C15.2725 22.1988 17.5952 21.1478 19.3494 19.4236C21.1035 17.6994 22.1735 15.4154 22.3664 12.9836H24V11.4098H22.36C22.1687 8.97789 21.1003 6.6932 19.3473 4.96784C17.5944 3.24248 15.2724 2.19001 12.8 2.00026V0ZM12 3.54098C14.3339 3.54098 16.5722 4.45293 18.2225 6.07619C19.8729 7.69946 20.8 9.90108 20.8 12.1967C20.8 14.4924 19.8729 16.694 18.2225 18.3173C16.5722 19.9405 14.3339 20.8525 12 20.8525C9.66609 20.8525 7.42778 19.9405 5.77746 18.3173C4.12714 16.694 3.2 14.4924 3.2 12.1967C3.2 9.90108 4.12714 7.69946 5.77746 6.07619C7.42778 4.45293 9.66609 3.54098 12 3.54098ZM12 8.26229C10.9391 8.26229 9.92172 8.67681 9.17157 9.41466C8.42143 10.1525 8 11.1532 8 12.1967C8 13.2402 8.42143 14.2409 9.17157 14.9788C9.92172 15.7166 10.9391 16.1311 12 16.1311C13.0609 16.1311 14.0783 15.7166 14.8284 14.9788C15.5786 14.2409 16 13.2402 16 12.1967C16 11.1532 15.5786 10.1525 14.8284 9.41466C14.0783 8.67681 13.0609 8.26229 12 8.26229Z" fill="#5B5B5B"/>
</svg>
