<svg width="22" height="21" viewBox="0 0 22 21" fill="none" xmlns="http://www.w3.org/2000/svg">
<path d="M16 12C16.2652 12 16.5196 11.8946 16.7071 11.7071C16.8946 11.5196 17 11.2652 17 11C17 10.7348 16.8946 10.4804 16.7071 10.2929C16.5196 10.1054 16.2652 10 16 10C15.7348 10 15.4804 10.1054 15.2929 10.2929C15.1054 10.4804 15 10.7348 15 11C15 11.2652 15.1054 11.5196 15.2929 11.7071C15.4804 11.8946 15.7348 12 16 12ZM16 16C16.2652 16 16.5196 15.8946 16.7071 15.7071C16.8946 15.5196 17 15.2652 17 15C17 14.7348 16.8946 14.4804 16.7071 14.2929C16.5196 14.1054 16.2652 14 16 14C15.7348 14 15.4804 14.1054 15.2929 14.2929C15.1054 14.4804 15 14.7348 15 15C15 15.2652 15.1054 15.5196 15.2929 15.7071C15.4804 15.8946 15.7348 16 16 16ZM12 11C12 11.2652 11.8946 11.5196 11.7071 11.7071C11.5196 11.8946 11.2652 12 11 12C10.7348 12 10.4804 11.8946 10.2929 11.7071C10.1054 11.5196 10 11.2652 10 11C10 10.7348 10.1054 10.4804 10.2929 10.2929C10.4804 10.1054 10.7348 10 11 10C11.2652 10 11.5196 10.1054 11.7071 10.2929C11.8946 10.4804 12 10.7348 12 11ZM12 15C12 15.2652 11.8946 15.5196 11.7071 15.7071C11.5196 15.8946 11.2652 16 11 16C10.7348 16 10.4804 15.8946 10.2929 15.7071C10.1054 15.5196 10 15.2652 10 15C10 14.7348 10.1054 14.4804 10.2929 14.2929C10.4804 14.1054 10.7348 14 11 14C11.2652 14 11.5196 14.1054 11.7071 14.2929C11.8946 14.4804 12 14.7348 12 15ZM6 12C6.26522 12 6.51957 11.8946 6.70711 11.7071C6.89464 11.5196 7 11.2652 7 11C7 10.7348 6.89464 10.4804 6.70711 10.2929C6.51957 10.1054 6.26522 10 6 10C5.73478 10 5.48043 10.1054 5.29289 10.2929C5.10536 10.4804 5 10.7348 5 11C5 11.2652 5.10536 11.5196 5.29289 11.7071C5.48043 11.8946 5.73478 12 6 12ZM6 16C6.26522 16 6.51957 15.8946 6.70711 15.7071C6.89464 15.5196 7 15.2652 7 15C7 14.7348 6.89464 14.4804 6.70711 14.2929C6.51957 14.1054 6.26522 14 6 14C5.73478 14 5.48043 14.1054 5.29289 14.2929C5.10536 14.4804 5 14.7348 5 15C5 15.2652 5.10536 15.5196 5.29289 15.7071C5.48043 15.8946 5.73478 16 6 16Z" fill="#5B5B5B"/>
<rect x="13" y="12" width="6" height="7" fill="white"/>
<path d="M16 19.2C16.8487 19.2 17.6626 18.8629 18.2627 18.2627C18.8629 17.6626 19.2 16.8487 19.2 16C19.2 15.1513 18.8629 14.3374 18.2627 13.7373C17.6626 13.1371 16.8487 12.8 16 12.8C15.1513 12.8 14.3374 13.1371 13.7373 13.7373C13.1371 14.3374 12.8 15.1513 12.8 16C12.8 16.8487 13.1371 17.6626 13.7373 18.2627C14.3374 18.8629 15.1513 19.2 16 19.2ZM16 12C16.5253 12 17.0454 12.1035 17.5307 12.3045C18.016 12.5055 18.457 12.8001 18.8284 13.1716C19.1999 13.543 19.4945 13.984 19.6955 14.4693C19.8965 14.9546 20 15.4747 20 16C20 17.0609 19.5786 18.0783 18.8284 18.8284C18.0783 19.5786 17.0609 20 16 20C13.788 20 12 18.2 12 16C12 14.9391 12.4214 13.9217 13.1716 13.1716C13.9217 12.4214 14.9391 12 16 12ZM16.2 14V16.1L18 17.168L17.7 17.66L15.6 16.4V14H16.2Z" fill="#5B5B5B"/>
<path fill-rule="evenodd" clip-rule="evenodd" d="M5.999 0C6.19791 0 6.38868 0.0790177 6.52933 0.21967C6.66998 0.360322 6.749 0.551088 6.749 0.75V1.513C7.411 1.5 8.14 1.5 8.942 1.5H13.055C13.858 1.5 14.587 1.5 15.249 1.513V0.75C15.249 0.551088 15.328 0.360322 15.4687 0.21967C15.6093 0.0790177 15.8001 0 15.999 0C16.1979 0 16.3887 0.0790177 16.5293 0.21967C16.67 0.360322 16.749 0.551088 16.749 0.75V1.577C17.009 1.597 17.255 1.622 17.488 1.653C18.66 1.811 19.609 2.143 20.358 2.891C21.106 3.64 21.438 4.589 21.596 5.761C21.749 6.901 21.749 8.356 21.749 10.194V12.306C21.749 14.144 21.749 15.6 21.596 16.739C21.438 17.911 21.106 18.86 20.358 19.609C19.609 20.357 18.66 20.689 17.488 20.847C16.348 21 14.893 21 13.055 21H8.944C7.106 21 5.65 21 4.511 20.847C3.339 20.689 2.39 20.357 1.641 19.609C0.893 18.86 0.561 17.911 0.403 16.739C0.25 15.599 0.25 14.144 0.25 12.306V10.194C0.25 8.356 0.25 6.9 0.403 5.761C0.561 4.589 0.893 3.64 1.641 2.891C2.39 2.143 3.339 1.811 4.511 1.653C4.744 1.622 4.991 1.597 5.25 1.577V0.75C5.25 0.551261 5.32888 0.360647 5.46932 0.220023C5.60975 0.0793996 5.80026 0.000264986 5.999 0ZM4.709 3.14C3.704 3.275 3.124 3.529 2.701 3.952C2.278 4.375 2.024 4.955 1.889 5.961C1.866 6.131 1.847 6.311 1.831 6.5H20.167C20.151 6.31 20.132 6.131 20.109 5.96C19.974 4.955 19.72 4.375 19.297 3.952C18.874 3.529 18.294 3.275 17.288 3.14C16.261 3.002 14.906 3 12.999 3H8.999C7.092 3 5.738 3.002 4.709 3.14ZM1.749 10.25C1.749 9.396 1.749 8.653 1.762 8H20.236C20.249 8.653 20.249 9.396 20.249 10.25V12.25C20.249 14.157 20.247 15.512 20.109 16.54C19.974 17.545 19.72 18.125 19.297 18.548C18.874 18.971 18.294 19.225 17.288 19.36C16.261 19.498 14.906 19.5 12.999 19.5H8.999C7.092 19.5 5.738 19.498 4.709 19.36C3.704 19.225 3.124 18.971 2.701 18.548C2.278 18.125 2.024 17.545 1.889 16.539C1.751 15.512 1.749 14.157 1.749 12.25V10.25Z" fill="#5B5B5B"/>
</svg>
