<svg width="24" height="24" viewBox="0 0 24 24" fill="none" xmlns="http://www.w3.org/2000/svg">
<g clip-path="url(#clip0_761_84752)">
<path d="M20.5698 0.857422H4.28404C3.37473 0.857422 2.50266 1.21865 1.85967 1.86163C1.21669 2.50461 0.855469 3.37668 0.855469 4.28599V23.1431L5.14118 20.5717L9.4269 23.1431L13.7126 20.5717L17.9983 23.1431V3.42885C17.9983 2.74687 18.2692 2.09281 18.7515 1.61058C19.2337 1.12834 19.8878 0.857422 20.5698 0.857422ZM20.5698 0.857422C21.2517 0.857422 21.9058 1.12834 22.388 1.61058C22.8703 2.09281 23.1412 2.74687 23.1412 3.42885V9.42885H17.9983" stroke="#5B5B5B" stroke-width="1.14286" stroke-linecap="round" stroke-linejoin="round"/>
<path d="M13.9688 8.94531L13.5859 10.3281H6.27344L6.65625 8.94531H13.9688ZM10.4297 17.5L6.5 12.8672L6.49219 11.7031H8.35938C8.84375 11.7031 9.24219 11.6172 9.55469 11.4453C9.8724 11.2682 10.1094 11.0312 10.2656 10.7344C10.4219 10.4323 10.5 10.0964 10.5 9.72656C10.5 9.32552 10.4271 8.97135 10.2812 8.66406C10.1354 8.35677 9.90365 8.11719 9.58594 7.94531C9.26823 7.77344 8.84896 7.6875 8.32812 7.6875H6.28125L6.70312 6.125H8.32812C9.25 6.125 10.0156 6.26302 10.625 6.53906C11.2344 6.8151 11.6901 7.21615 11.9922 7.74219C12.2995 8.26823 12.4531 8.90365 12.4531 9.64844C12.4531 10.2995 12.3411 10.875 12.1172 11.375C11.8932 11.8698 11.5312 12.2708 11.0312 12.5781C10.5312 12.8802 9.86719 13.0677 9.03906 13.1406L12.6328 17.3984V17.5H10.4297ZM13.9766 6.125L13.5859 7.50781H7.60938L7.99219 6.125H13.9766Z" fill="#5B5B5B"/>
</g>
<defs>
<clipPath id="clip0_761_84752">
<rect width="24" height="24" fill="white"/>
</clipPath>
</defs>
</svg>
