<svg width="24" height="24" viewBox="0 0 24 24" fill="none" xmlns="http://www.w3.org/2000/svg">
<path d="M17 13C17.2652 13 17.5196 12.8946 17.7071 12.7071C17.8946 12.5196 18 12.2652 18 12C18 11.7348 17.8946 11.4804 17.7071 11.2929C17.5196 11.1054 17.2652 11 17 11C16.7348 11 16.4804 11.1054 16.2929 11.2929C16.1054 11.4804 16 11.7348 16 12C16 12.2652 16.1054 12.5196 16.2929 12.7071C16.4804 12.8946 16.7348 13 17 13ZM17 17C17.2652 17 17.5196 16.8946 17.7071 16.7071C17.8946 16.5196 18 16.2652 18 16C18 15.7348 17.8946 15.4804 17.7071 15.2929C17.5196 15.1054 17.2652 15 17 15C16.7348 15 16.4804 15.1054 16.2929 15.2929C16.1054 15.4804 16 15.7348 16 16C16 16.2652 16.1054 16.5196 16.2929 16.7071C16.4804 16.8946 16.7348 17 17 17ZM13 12C13 12.2652 12.8946 12.5196 12.7071 12.7071C12.5196 12.8946 12.2652 13 12 13C11.7348 13 11.4804 12.8946 11.2929 12.7071C11.1054 12.5196 11 12.2652 11 12C11 11.7348 11.1054 11.4804 11.2929 11.2929C11.4804 11.1054 11.7348 11 12 11C12.2652 11 12.5196 11.1054 12.7071 11.2929C12.8946 11.4804 13 11.7348 13 12ZM13 16C13 16.2652 12.8946 16.5196 12.7071 16.7071C12.5196 16.8946 12.2652 17 12 17C11.7348 17 11.4804 16.8946 11.2929 16.7071C11.1054 16.5196 11 16.2652 11 16C11 15.7348 11.1054 15.4804 11.2929 15.2929C11.4804 15.1054 11.7348 15 12 15C12.2652 15 12.5196 15.1054 12.7071 15.2929C12.8946 15.4804 13 15.7348 13 16ZM7 13C7.26522 13 7.51957 12.8946 7.70711 12.7071C7.89464 12.5196 8 12.2652 8 12C8 11.7348 7.89464 11.4804 7.70711 11.2929C7.51957 11.1054 7.26522 11 7 11C6.73478 11 6.48043 11.1054 6.29289 11.2929C6.10536 11.4804 6 11.7348 6 12C6 12.2652 6.10536 12.5196 6.29289 12.7071C6.48043 12.8946 6.73478 13 7 13ZM7 17C7.26522 17 7.51957 16.8946 7.70711 16.7071C7.89464 16.5196 8 16.2652 8 16C8 15.7348 7.89464 15.4804 7.70711 15.2929C7.51957 15.1054 7.26522 15 7 15C6.73478 15 6.48043 15.1054 6.29289 15.2929C6.10536 15.4804 6 15.7348 6 16C6 16.2652 6.10536 16.5196 6.29289 16.7071C6.48043 16.8946 6.73478 17 7 17Z" fill="#5B5B5B"/>
<path fill-rule="evenodd" clip-rule="evenodd" d="M6.999 1C7.19791 1 7.38868 1.07902 7.52933 1.21967C7.66998 1.36032 7.749 1.55109 7.749 1.75V2.513C8.411 2.5 9.14 2.5 9.942 2.5H14.055C14.858 2.5 15.587 2.5 16.249 2.513V1.75C16.249 1.55109 16.328 1.36032 16.4687 1.21967C16.6093 1.07902 16.8001 1 16.999 1C17.1979 1 17.3887 1.07902 17.5293 1.21967C17.67 1.36032 17.749 1.55109 17.749 1.75V2.577C18.009 2.597 18.255 2.622 18.488 2.653C19.66 2.811 20.609 3.143 21.358 3.891C22.106 4.64 22.438 5.589 22.596 6.761C22.749 7.901 22.749 9.356 22.749 11.194V13.306C22.749 15.144 22.749 16.6 22.596 17.739C22.438 18.911 22.106 19.86 21.358 20.609C20.609 21.357 19.66 21.689 18.488 21.847C17.348 22 15.893 22 14.055 22H9.944C8.106 22 6.65 22 5.511 21.847C4.339 21.689 3.39 21.357 2.641 20.609C1.893 19.86 1.561 18.911 1.403 17.739C1.25 16.599 1.25 15.144 1.25 13.306V11.194C1.25 9.356 1.25 7.9 1.403 6.761C1.561 5.589 1.893 4.64 2.641 3.891C3.39 3.143 4.339 2.811 5.511 2.653C5.744 2.622 5.991 2.597 6.25 2.577V1.75C6.25 1.55126 6.32888 1.36065 6.46932 1.22002C6.60975 1.0794 6.80026 1.00026 6.999 1ZM5.709 4.14C4.704 4.275 4.124 4.529 3.701 4.952C3.278 5.375 3.024 5.955 2.889 6.961C2.866 7.131 2.847 7.311 2.831 7.5H21.167C21.151 7.31 21.132 7.131 21.109 6.96C20.974 5.955 20.72 5.375 20.297 4.952C19.874 4.529 19.294 4.275 18.288 4.14C17.261 4.002 15.906 4 13.999 4H9.999C8.092 4 6.738 4.002 5.709 4.14ZM2.749 11.25C2.749 10.396 2.749 9.653 2.762 9H21.236C21.249 9.653 21.249 10.396 21.249 11.25V13.25C21.249 15.157 21.247 16.512 21.109 17.54C20.974 18.545 20.72 19.125 20.297 19.548C19.874 19.971 19.294 20.225 18.288 20.36C17.261 20.498 15.906 20.5 13.999 20.5H9.999C8.092 20.5 6.738 20.498 5.709 20.36C4.704 20.225 4.124 19.971 3.701 19.548C3.278 19.125 3.024 18.545 2.889 17.539C2.751 16.512 2.749 15.157 2.749 13.25V11.25Z" fill="#5B5B5B"/>
</svg>
