<svg width="24" height="24" viewBox="0 0 24 24" fill="none" xmlns="http://www.w3.org/2000/svg">
<g clip-path="url(#clip0_761_84686)">
<path fill-rule="evenodd" clip-rule="evenodd" d="M13.8 6.60039C13.3272 6.60039 12.8591 6.69351 12.4223 6.87442C11.9856 7.05534 11.5887 7.32052 11.2544 7.65481C10.9201 7.9891 10.655 8.38596 10.474 8.82273C10.2931 9.2595 10.2 9.72763 10.2 10.2004C10.2 10.6731 10.2931 11.1413 10.474 11.5781C10.655 12.0148 10.9201 12.4117 11.2544 12.746C11.5887 13.0803 11.9856 13.3454 12.4223 13.5264C12.8591 13.7073 13.3272 13.8004 13.8 13.8004C14.7548 13.8004 15.6705 13.4211 16.3456 12.746C17.0207 12.0708 17.4 11.1552 17.4 10.2004C17.4 9.24561 17.0207 8.32994 16.3456 7.65481C15.6705 6.97968 14.7548 6.60039 13.8 6.60039ZM9 10.2004C9 8.92735 9.50571 7.70645 10.4059 6.80628C11.3061 5.9061 12.527 5.40039 13.8 5.40039C15.073 5.40039 16.2939 5.9061 17.1941 6.80628C18.0943 7.70645 18.6 8.92735 18.6 10.2004C18.6 11.4734 18.0943 12.6943 17.1941 13.5945C16.2939 14.4947 15.073 15.0004 13.8 15.0004C12.527 15.0004 11.3061 14.4947 10.4059 13.5945C9.50571 12.6943 9 11.4734 9 10.2004Z" fill="#5B5B5B"/>
<path fill-rule="evenodd" clip-rule="evenodd" d="M3 4.80039C3 4.16387 3.25286 3.55342 3.70294 3.10333C4.15303 2.65325 4.76348 2.40039 5.4 2.40039C6.03652 2.40039 6.64697 2.65325 7.09706 3.10333C7.54714 3.55342 7.8 4.16387 7.8 4.80039V8.72679C7.8 9.92679 8.22 11.0872 8.988 12.0088L10.6608 14.0164C10.7582 14.1391 10.8037 14.295 10.7876 14.4508C10.7716 14.6066 10.6952 14.75 10.5749 14.8503C10.4546 14.9505 10.2998 14.9998 10.1436 14.9875C9.98748 14.9752 9.84234 14.9023 9.7392 14.7844L8.0664 12.7768C7.11893 11.6399 6.60004 10.2068 6.6 8.72679V4.80039C6.6 4.48213 6.47357 4.17691 6.24853 3.95186C6.02348 3.72682 5.71826 3.60039 5.4 3.60039C5.08174 3.60039 4.77652 3.72682 4.55147 3.95186C4.32643 4.17691 4.2 4.48213 4.2 4.80039V9.30039C4.20015 10.187 4.41858 11.0598 4.836 11.842L8.9292 19.5184C8.99761 19.6581 9.00908 19.8189 8.96118 19.9669C8.91329 20.115 8.80978 20.2386 8.67249 20.3117C8.5352 20.3849 8.37486 20.4019 8.22529 20.3591C8.07573 20.3163 7.94863 20.2171 7.8708 20.0824L3.7764 12.406C3.26667 11.4502 3.00002 10.3836 3 9.30039V4.80039Z" fill="#5B5B5B"/>
<g filter="url(#filter0_d_761_84686)">
<path fill-rule="evenodd" clip-rule="evenodd" d="M9.60078 14.4008C9.60078 14.2417 9.664 14.089 9.77652 13.9765C9.88904 13.864 10.0417 13.8008 10.2008 13.8008H13.2008C14.9512 13.8008 16.6299 14.4961 17.8677 15.7339C19.1054 16.9716 19.8008 18.6504 19.8008 20.4008V22.8008C19.8008 22.9599 19.7376 23.1125 19.625 23.225C19.5125 23.3376 19.3599 23.4008 19.2008 23.4008C19.0417 23.4008 18.889 23.3376 18.7765 23.225C18.664 23.1125 18.6008 22.9599 18.6008 22.8008V20.4008C18.6008 18.9686 18.0319 17.5951 17.0192 16.5824C16.0065 15.5697 14.633 15.0008 13.2008 15.0008H10.2008C10.0417 15.0008 9.88904 14.9376 9.77652 14.825C9.664 14.7125 9.60078 14.5599 9.60078 14.4008ZM8.40078 19.2008C8.55991 19.2008 8.71252 19.264 8.82505 19.3765C8.93757 19.489 9.00078 19.6417 9.00078 19.8008V22.8008C9.00078 22.9599 8.93757 23.1125 8.82505 23.225C8.71252 23.3376 8.55991 23.4008 8.40078 23.4008C8.24165 23.4008 8.08904 23.3376 7.97652 23.225C7.864 23.1125 7.80078 22.9599 7.80078 22.8008V19.8008C7.80078 19.6417 7.864 19.489 7.97652 19.3765C8.08904 19.264 8.24165 19.2008 8.40078 19.2008Z" fill="#5B5B5B"/>
</g>
</g>
<defs>
<filter id="filter0_d_761_84686" x="3.80078" y="13.8008" width="20" height="17.5996" filterUnits="userSpaceOnUse" color-interpolation-filters="sRGB">
<feFlood flood-opacity="0" result="BackgroundImageFix"/>
<feColorMatrix in="SourceAlpha" type="matrix" values="0 0 0 0 0 0 0 0 0 0 0 0 0 0 0 0 0 0 127 0" result="hardAlpha"/>
<feOffset dy="4"/>
<feGaussianBlur stdDeviation="2"/>
<feComposite in2="hardAlpha" operator="out"/>
<feColorMatrix type="matrix" values="0 0 0 0 0 0 0 0 0 0 0 0 0 0 0 0 0 0 0.25 0"/>
<feBlend mode="normal" in2="BackgroundImageFix" result="effect1_dropShadow_761_84686"/>
<feBlend mode="normal" in="SourceGraphic" in2="effect1_dropShadow_761_84686" result="shape"/>
</filter>
<clipPath id="clip0_761_84686">
<rect width="24" height="24" fill="white"/>
</clipPath>
</defs>
</svg>
