<svg width="24" height="24" viewBox="0 0 24 24" fill="none" xmlns="http://www.w3.org/2000/svg">
<g clip-path="url(#clip0_761_84748)">
<path d="M24 21.0004H21.3398C21.7148 21.4144 22 21.8754 22.1953 22.3832C22.3906 22.891 22.4922 23.4301 22.5 24.0004H21C21 23.5863 20.9219 23.1996 20.7656 22.8402C20.6094 22.4808 20.3945 22.1605 20.1211 21.8793C19.8477 21.598 19.5312 21.3832 19.1719 21.2347C18.8125 21.0863 18.4219 21.0082 18 21.0004C17.5859 21.0004 17.1992 21.0785 16.8398 21.2347C16.4805 21.391 16.1602 21.6058 15.8789 21.8793C15.5977 22.1527 15.3828 22.4691 15.2344 22.8285C15.0859 23.1879 15.0078 23.5785 15 24.0004H13.5C13.5 23.5863 13.4219 23.1996 13.2656 22.8402C13.1094 22.4808 12.8945 22.1605 12.6211 21.8793C12.3477 21.598 12.0312 21.3832 11.6719 21.2347C11.3125 21.0863 10.9219 21.0082 10.5 21.0004C10.0859 21.0004 9.69922 21.0785 9.33984 21.2347C8.98047 21.391 8.66016 21.6058 8.37891 21.8793C8.09766 22.1527 7.88281 22.4691 7.73438 22.8285C7.58594 23.1879 7.50781 23.5785 7.5 24.0004H6C6 23.5941 6.05469 23.1957 6.16406 22.8051C6.27344 22.4144 6.42578 22.0511 6.62109 21.7152C6.81641 21.3793 7.0625 21.0668 7.35938 20.7777C7.65625 20.4886 7.98047 20.2504 8.33203 20.0629C8.06641 19.7894 7.86328 19.473 7.72266 19.1136C7.58203 18.7543 7.50781 18.3832 7.5 18.0004C7.5 17.4613 7.63281 16.9652 7.89844 16.5121C8.16406 16.059 8.53125 15.6957 9 15.4222V12.0004C9 11.766 9.05078 11.5433 9.15234 11.3324C9.25391 11.1215 9.40234 10.9457 9.59766 10.8051C9.16797 10.2347 8.64062 9.79333 8.01562 9.48083C7.39062 9.16833 6.71875 9.00818 6 9.00037C5.375 9.00037 4.79297 9.11755 4.25391 9.35193C3.71484 9.5863 3.23828 9.90662 2.82422 10.3129C2.41016 10.7191 2.08594 11.1996 1.85156 11.7543C1.61719 12.309 1.5 12.891 1.5 13.5004H0C0 12.9301 0.078125 12.3793 0.234375 11.848C0.390625 11.3168 0.613281 10.8129 0.902344 10.3363C1.19141 9.85974 1.54688 9.43787 1.96875 9.07068C2.39062 8.70349 2.85156 8.38708 3.35156 8.12146C2.76562 7.69958 2.3125 7.17224 1.99219 6.53943C1.67188 5.90662 1.50781 5.22693 1.5 4.50037C1.5 3.88318 1.61719 3.30115 1.85156 2.75427C2.08594 2.2074 2.40625 1.73083 2.8125 1.32458C3.21875 0.918335 3.69531 0.594116 4.24219 0.351929C4.78906 0.109741 5.375 -0.00744629 6 0.000366211C6.61719 0.000366211 7.19922 0.117554 7.74609 0.351929C8.29297 0.586304 8.76953 0.906616 9.17578 1.31287C9.58203 1.71912 9.90625 2.19958 10.1484 2.75427C10.3906 3.30896 10.5078 3.89099 10.5 4.50037C10.5 5.22693 10.3398 5.90662 10.0195 6.53943C9.69922 7.17224 9.24219 7.70349 8.64844 8.13318C9.17969 8.3988 9.66016 8.73083 10.0898 9.12927C10.5195 9.52771 10.8867 9.98474 11.1914 10.5004H15.375C15.6172 10.5004 15.8281 10.4652 16.0078 10.3949C16.1875 10.3246 16.3555 10.2308 16.5117 10.1136C16.668 9.99646 16.8281 9.87537 16.9922 9.75037C17.1562 9.62537 17.3359 9.50427 17.5312 9.38708C17.7266 9.2699 17.9531 9.18005 18.2109 9.11755C18.4688 9.05505 18.7734 9.01599 19.125 9.00037H22.5C22.7109 9.00037 22.9062 9.03943 23.0859 9.11755C23.2656 9.19568 23.4219 9.30115 23.5547 9.43396C23.6875 9.56677 23.7969 9.72693 23.8828 9.91443C23.9688 10.1019 24.0078 10.2972 24 10.5004V21.0004ZM6 7.50037C6.41406 7.50037 6.80078 7.42224 7.16016 7.26599C7.51953 7.10974 7.83984 6.8949 8.12109 6.62146C8.40234 6.34802 8.61719 6.03162 8.76562 5.67224C8.91406 5.31287 8.99219 4.92224 9 4.50037C9 4.0863 8.92188 3.69958 8.76562 3.34021C8.60938 2.98083 8.39453 2.66052 8.12109 2.37927C7.84766 2.09802 7.53125 1.88318 7.17188 1.73474C6.8125 1.5863 6.42188 1.50818 6 1.50037C5.58594 1.50037 5.19922 1.57849 4.83984 1.73474C4.48047 1.89099 4.16016 2.10583 3.87891 2.37927C3.59766 2.65271 3.38281 2.96912 3.23438 3.32849C3.08594 3.68787 3.00781 4.07849 3 4.50037C3 4.91443 3.07812 5.30115 3.23438 5.66052C3.39062 6.0199 3.60547 6.34021 3.87891 6.62146C4.15234 6.90271 4.46875 7.11755 4.82812 7.26599C5.1875 7.41443 5.57812 7.49255 6 7.50037ZM10.5 19.5004C10.7109 19.5004 10.9062 19.4613 11.0859 19.3832C11.2656 19.3051 11.4219 19.1996 11.5547 19.0668C11.6875 18.934 11.7969 18.7738 11.8828 18.5863C11.9688 18.3988 12.0078 18.2035 12 18.0004C12 17.7894 11.9609 17.5941 11.8828 17.4144C11.8047 17.2347 11.6992 17.0785 11.5664 16.9457C11.4336 16.8129 11.2734 16.7035 11.0859 16.6176C10.8984 16.5316 10.7031 16.4926 10.5 16.5004C10.2891 16.5004 10.0938 16.5394 9.91406 16.6176C9.73438 16.6957 9.57812 16.8011 9.44531 16.934C9.3125 17.0668 9.20312 17.2269 9.11719 17.4144C9.03125 17.6019 8.99219 17.7972 9 18.0004C9 18.2113 9.03906 18.4066 9.11719 18.5863C9.19531 18.766 9.30078 18.9222 9.43359 19.0551C9.56641 19.1879 9.72656 19.2972 9.91406 19.3832C10.1016 19.4691 10.2969 19.5082 10.5 19.5004ZM18 19.5004C18.2109 19.5004 18.4062 19.4613 18.5859 19.3832C18.7656 19.3051 18.9219 19.1996 19.0547 19.0668C19.1875 18.934 19.2969 18.7738 19.3828 18.5863C19.4688 18.3988 19.5078 18.2035 19.5 18.0004C19.5 17.7894 19.4609 17.5941 19.3828 17.4144C19.3047 17.2347 19.1992 17.0785 19.0664 16.9457C18.9336 16.8129 18.7734 16.7035 18.5859 16.6176C18.3984 16.5316 18.2031 16.4926 18 16.5004C17.7891 16.5004 17.5938 16.5394 17.4141 16.6176C17.2344 16.6957 17.0781 16.8011 16.9453 16.934C16.8125 17.0668 16.7031 17.2269 16.6172 17.4144C16.5312 17.6019 16.4922 17.7972 16.5 18.0004C16.5 18.2113 16.5391 18.4066 16.6172 18.5863C16.6953 18.766 16.8008 18.9222 16.9336 19.0551C17.0664 19.1879 17.2266 19.2972 17.4141 19.3832C17.6016 19.4691 17.7969 19.5082 18 19.5004ZM22.5 13.5004H19.125C18.7734 13.5004 18.4688 13.4652 18.2109 13.3949C17.9531 13.3246 17.7266 13.2308 17.5312 13.1136C17.3359 12.9965 17.1602 12.8754 17.0039 12.7504C16.8477 12.6254 16.6875 12.5043 16.5234 12.3871C16.3594 12.2699 16.1875 12.1801 16.0078 12.1176C15.8281 12.0551 15.6172 12.016 15.375 12.0004H10.5V15.0004C10.9141 15.0004 11.3008 15.0785 11.6602 15.2347C12.0195 15.391 12.3398 15.6058 12.6211 15.8793C12.9023 16.1527 13.1172 16.4691 13.2656 16.8285C13.4141 17.1879 13.4922 17.5785 13.5 18.0004C13.5 18.3832 13.4297 18.7543 13.2891 19.1136C13.1484 19.473 12.9414 19.7894 12.668 20.0629C13.3164 20.4222 13.8438 20.9066 14.25 21.516C14.6562 20.9066 15.1836 20.4222 15.832 20.0629C15.5664 19.7894 15.3633 19.473 15.2227 19.1136C15.082 18.7543 15.0078 18.3832 15 18.0004C15 17.5863 15.0781 17.1996 15.2344 16.8402C15.3906 16.4808 15.6055 16.1605 15.8789 15.8793C16.1523 15.598 16.4688 15.3832 16.8281 15.2347C17.1875 15.0863 17.5781 15.0082 18 15.0004C18.4141 15.0004 18.8008 15.0785 19.1602 15.2347C19.5195 15.391 19.8398 15.6058 20.1211 15.8793C20.4023 16.1527 20.6172 16.4691 20.7656 16.8285C20.9141 17.1879 20.9922 17.5785 21 18.0004C21 18.266 20.9648 18.5238 20.8945 18.7738C20.8242 19.0238 20.7188 19.266 20.5781 19.5004H22.5V13.5004ZM22.5 10.5004H19.125C18.9453 10.5004 18.7852 10.5199 18.6445 10.559C18.5039 10.598 18.3711 10.6488 18.2461 10.7113C18.1211 10.7738 18 10.8519 17.8828 10.9457C17.7656 11.0394 17.6406 11.141 17.5078 11.2504C17.6328 11.3597 17.7539 11.4574 17.8711 11.5433C17.9883 11.6293 18.1133 11.7074 18.2461 11.7777C18.3789 11.848 18.5117 11.9027 18.6445 11.9418C18.7773 11.9808 18.9375 12.0004 19.125 12.0004H22.5V10.5004Z" fill="#5B5B5B"/>
</g>
<defs>
<clipPath id="clip0_761_84748">
<rect width="24" height="24" fill="white"/>
</clipPath>
</defs>
</svg>
