<svg width="24" height="24" viewBox="0 0 24 24" fill="none" xmlns="http://www.w3.org/2000/svg">
<g clip-path="url(#clip0_761_84731)">
<rect width="24" height="24" rx="3" fill="white"/>
<line x1="3" y1="3.5" x2="12" y2="3.5" stroke="#5B5B5B"/>
<line x1="3" y1="6.5" x2="15" y2="6.5" stroke="#5B5B5B"/>
<line x1="3" y1="9.5" x2="18" y2="9.5" stroke="#5B5B5B"/>
<line x1="3" y1="12.5" x2="22" y2="12.5" stroke="#5B5B5B"/>
<path d="M27.4219 7.72266L27.2305 8.41406H23.5742L23.7656 7.72266H27.4219ZM25.6523 12L23.6875 9.68359L23.6836 9.10156H24.6172C24.8594 9.10156 25.0586 9.05859 25.2148 8.97266C25.3737 8.88411 25.4922 8.76562 25.5703 8.61719C25.6484 8.46615 25.6875 8.29818 25.6875 8.11328C25.6875 7.91276 25.651 7.73568 25.5781 7.58203C25.5052 7.42839 25.3893 7.30859 25.2305 7.22266C25.0716 7.13672 24.862 7.09375 24.6016 7.09375H23.5781L23.7891 6.3125H24.6016C25.0625 6.3125 25.4453 6.38151 25.75 6.51953C26.0547 6.65755 26.2826 6.85807 26.4336 7.12109C26.5872 7.38411 26.6641 7.70182 26.6641 8.07422C26.6641 8.39974 26.6081 8.6875 26.4961 8.9375C26.3841 9.1849 26.2031 9.38542 25.9531 9.53906C25.7031 9.6901 25.3711 9.78385 24.957 9.82031L26.7539 11.9492V12H25.6523ZM27.4258 6.3125L27.2305 7.00391H24.2422L24.4336 6.3125H27.4258Z" fill="#5B5B5B"/>
<path d="M4.03206 19.9623C4.03206 19.9623 3.59314 16.2929 5.96331 16.0117C8.66086 15.6916 7.62446 22.0628 9.93387 20.8451C11.4588 20.0411 10.6467 16.8963 12.4145 16.6161C14.246 16.3258 13.3965 20.6677 15.0615 19.9623C15.9591 19.5821 16 17.9866 16 17.9866" stroke="#5B5B5B"/>
</g>
<rect x="0.75" y="0.75" width="22.5" height="22.5" rx="2.25" stroke="#5B5B5B" stroke-width="1.5"/>
<defs>
<clipPath id="clip0_761_84731">
<rect width="24" height="24" rx="3" fill="white"/>
</clipPath>
</defs>
</svg>
