<svg width="32" height="32" viewBox="0 0 32 32" fill="none" xmlns="http://www.w3.org/2000/svg">
<g filter="url(#filter0_d_761_84700)">
<path d="M21 13C21.2652 13 21.5196 12.8946 21.7071 12.7071C21.8946 12.5196 22 12.2652 22 12C22 11.7348 21.8946 11.4804 21.7071 11.2929C21.5196 11.1054 21.2652 11 21 11C20.7348 11 20.4804 11.1054 20.2929 11.2929C20.1054 11.4804 20 11.7348 20 12C20 12.2652 20.1054 12.5196 20.2929 12.7071C20.4804 12.8946 20.7348 13 21 13ZM21 17C21.2652 17 21.5196 16.8946 21.7071 16.7071C21.8946 16.5196 22 16.2652 22 16C22 15.7348 21.8946 15.4804 21.7071 15.2929C21.5196 15.1054 21.2652 15 21 15C20.7348 15 20.4804 15.1054 20.2929 15.2929C20.1054 15.4804 20 15.7348 20 16C20 16.2652 20.1054 16.5196 20.2929 16.7071C20.4804 16.8946 20.7348 17 21 17ZM17 12C17 12.2652 16.8946 12.5196 16.7071 12.7071C16.5196 12.8946 16.2652 13 16 13C15.7348 13 15.4804 12.8946 15.2929 12.7071C15.1054 12.5196 15 12.2652 15 12C15 11.7348 15.1054 11.4804 15.2929 11.2929C15.4804 11.1054 15.7348 11 16 11C16.2652 11 16.5196 11.1054 16.7071 11.2929C16.8946 11.4804 17 11.7348 17 12ZM17 16C17 16.2652 16.8946 16.5196 16.7071 16.7071C16.5196 16.8946 16.2652 17 16 17C15.7348 17 15.4804 16.8946 15.2929 16.7071C15.1054 16.5196 15 16.2652 15 16C15 15.7348 15.1054 15.4804 15.2929 15.2929C15.4804 15.1054 15.7348 15 16 15C16.2652 15 16.5196 15.1054 16.7071 15.2929C16.8946 15.4804 17 15.7348 17 16ZM11 13C11.2652 13 11.5196 12.8946 11.7071 12.7071C11.8946 12.5196 12 12.2652 12 12C12 11.7348 11.8946 11.4804 11.7071 11.2929C11.5196 11.1054 11.2652 11 11 11C10.7348 11 10.4804 11.1054 10.2929 11.2929C10.1054 11.4804 10 11.7348 10 12C10 12.2652 10.1054 12.5196 10.2929 12.7071C10.4804 12.8946 10.7348 13 11 13ZM11 17C11.2652 17 11.5196 16.8946 11.7071 16.7071C11.8946 16.5196 12 16.2652 12 16C12 15.7348 11.8946 15.4804 11.7071 15.2929C11.5196 15.1054 11.2652 15 11 15C10.7348 15 10.4804 15.1054 10.2929 15.2929C10.1054 15.4804 10 15.7348 10 16C10 16.2652 10.1054 16.5196 10.2929 16.7071C10.4804 16.8946 10.7348 17 11 17Z" fill="#5B5B5B"/>
<rect x="18" y="13" width="6" height="7" fill="white"/>
<path d="M21 20.2C21.8487 20.2 22.6626 19.8629 23.2627 19.2627C23.8629 18.6626 24.2 17.8487 24.2 17C24.2 16.1513 23.8629 15.3374 23.2627 14.7373C22.6626 14.1371 21.8487 13.8 21 13.8C20.1513 13.8 19.3374 14.1371 18.7373 14.7373C18.1371 15.3374 17.8 16.1513 17.8 17C17.8 17.8487 18.1371 18.6626 18.7373 19.2627C19.3374 19.8629 20.1513 20.2 21 20.2ZM21 13C21.5253 13 22.0454 13.1035 22.5307 13.3045C23.016 13.5055 23.457 13.8001 23.8284 14.1716C24.1999 14.543 24.4945 14.984 24.6955 15.4693C24.8965 15.9546 25 16.4747 25 17C25 18.0609 24.5786 19.0783 23.8284 19.8284C23.0783 20.5786 22.0609 21 21 21C18.788 21 17 19.2 17 17C17 15.9391 17.4214 14.9217 18.1716 14.1716C18.9217 13.4214 19.9391 13 21 13ZM21.2 15V17.1L23 18.168L22.7 18.66L20.6 17.4V15H21.2Z" fill="#5B5B5B"/>
<path fill-rule="evenodd" clip-rule="evenodd" d="M10.999 1C11.1979 1 11.3887 1.07902 11.5293 1.21967C11.67 1.36032 11.749 1.55109 11.749 1.75V2.513C12.411 2.5 13.14 2.5 13.942 2.5H18.055C18.858 2.5 19.587 2.5 20.249 2.513V1.75C20.249 1.55109 20.328 1.36032 20.4687 1.21967C20.6093 1.07902 20.8001 1 20.999 1C21.1979 1 21.3887 1.07902 21.5293 1.21967C21.67 1.36032 21.749 1.55109 21.749 1.75V2.577C22.009 2.597 22.255 2.622 22.488 2.653C23.66 2.811 24.609 3.143 25.358 3.891C26.106 4.64 26.438 5.589 26.596 6.761C26.749 7.901 26.749 9.356 26.749 11.194V13.306C26.749 15.144 26.749 16.6 26.596 17.739C26.438 18.911 26.106 19.86 25.358 20.609C24.609 21.357 23.66 21.689 22.488 21.847C21.348 22 19.893 22 18.055 22H13.944C12.106 22 10.65 22 9.511 21.847C8.339 21.689 7.39 21.357 6.641 20.609C5.893 19.86 5.561 18.911 5.403 17.739C5.25 16.599 5.25 15.144 5.25 13.306V11.194C5.25 9.356 5.25 7.9 5.403 6.761C5.561 5.589 5.893 4.64 6.641 3.891C7.39 3.143 8.339 2.811 9.511 2.653C9.744 2.622 9.991 2.597 10.25 2.577V1.75C10.25 1.55126 10.3289 1.36065 10.4693 1.22002C10.6098 1.0794 10.8003 1.00026 10.999 1ZM9.709 4.14C8.704 4.275 8.124 4.529 7.701 4.952C7.278 5.375 7.024 5.955 6.889 6.961C6.866 7.131 6.847 7.311 6.831 7.5H25.167C25.151 7.31 25.132 7.131 25.109 6.96C24.974 5.955 24.72 5.375 24.297 4.952C23.874 4.529 23.294 4.275 22.288 4.14C21.261 4.002 19.906 4 17.999 4H13.999C12.092 4 10.738 4.002 9.709 4.14ZM6.749 11.25C6.749 10.396 6.749 9.653 6.762 9H25.236C25.249 9.653 25.249 10.396 25.249 11.25V13.25C25.249 15.157 25.247 16.512 25.109 17.54C24.974 18.545 24.72 19.125 24.297 19.548C23.874 19.971 23.294 20.225 22.288 20.36C21.261 20.498 19.906 20.5 17.999 20.5H13.999C12.092 20.5 10.738 20.498 9.709 20.36C8.704 20.225 8.124 19.971 7.701 19.548C7.278 19.125 7.024 18.545 6.889 17.539C6.751 16.512 6.749 15.157 6.749 13.25V11.25Z" fill="#5B5B5B"/>
</g>
<defs>
<filter id="filter0_d_761_84700" x="0" y="0" width="32" height="32" filterUnits="userSpaceOnUse" color-interpolation-filters="sRGB">
<feFlood flood-opacity="0" result="BackgroundImageFix"/>
<feColorMatrix in="SourceAlpha" type="matrix" values="0 0 0 0 0 0 0 0 0 0 0 0 0 0 0 0 0 0 127 0" result="hardAlpha"/>
<feOffset dy="4"/>
<feGaussianBlur stdDeviation="2"/>
<feComposite in2="hardAlpha" operator="out"/>
<feColorMatrix type="matrix" values="0 0 0 0 0 0 0 0 0 0 0 0 0 0 0 0 0 0 0.25 0"/>
<feBlend mode="normal" in2="BackgroundImageFix" result="effect1_dropShadow_761_84700"/>
<feBlend mode="normal" in="SourceGraphic" in2="effect1_dropShadow_761_84700" result="shape"/>
</filter>
</defs>
</svg>
