<svg width="24" height="24" viewBox="0 0 24 24" fill="none" xmlns="http://www.w3.org/2000/svg">
<path d="M4 19V4C4 3.44772 4.44772 3 5 3H18.5C19.0523 3 19.5 3.44772 19.5 4V19C19.5 19.5523 19.0523 20 18.5 20H5C4.44772 20 4 19.5523 4 19Z" stroke="#5B5B5B"/>
<path d="M10 7H16" stroke="#5B5B5B"/>
<path d="M8 7H9" stroke="#5B5B5B"/>
<path d="M8 10H9" stroke="#5B5B5B"/>
<path d="M8 13H9" stroke="#5B5B5B"/>
<path d="M10 10H16" stroke="#5B5B5B"/>
<path d="M10 13H16" stroke="#5B5B5B"/>
<path d="M2.09535 16.697C2.17483 16.2748 2.55828 16 2.98791 16H14.0121C14.4417 16 14.8252 16.2748 14.9046 16.697C15.0212 17.3162 15.0948 18.2178 14.7312 18.8458C13.068 21.7181 3.93202 21.7181 2.2688 18.8458C1.90515 18.2178 1.9788 17.3162 2.09535 16.697Z" fill="#5B5B5B"/>
<path d="M7.40084 16.5302L19.8271 17.4785C19.8271 17.4785 20.3479 18.6022 19.6972 19.181C17.9077 20.7728 8.79818 20.0777 7.27091 18.2328C6.71554 17.5619 7.40084 16.5302 7.40084 16.5302Z" fill="#5B5B5B"/>
<circle cx="17" cy="17" r="2" fill="#F5F5F5"/>
</svg>
